<svg xmlns="http://www.w3.org/2000/svg" xmlns:xlink="http://www.w3.org/1999/xlink" fill="none" version="1.1" width="405" height="151" viewBox="0 0 405 151"><defs><filter id="master_svg0_0_12747" filterUnits="objectBoundingBox" color-interpolation-filters="sRGB" x="-0.19047619047619047" y="-0.6885247623943297" width="1.380952380952381" height="2.967213606840942"><feFlood flood-opacity="0" result="BackgroundImageFix"/><feColorMatrix in="SourceAlpha" type="matrix" values="0 0 0 0 0 0 0 0 0 0 0 0 0 0 0 0 0 0 127 0"/><feOffset dy="18" dx="0"/><feGaussianBlur stdDeviation="15"/><feColorMatrix type="matrix" values="0 0 0 0 0.5128315091133118 0 0 0 0 0.46833470463752747 0 0 0 0 0.7753626704216003 0 0 0 0.10999999940395355 0"/><feBlend mode="normal" in2="BackgroundImageFix" result="effect1_dropShadow"/><feBlend mode="normal" in="SourceGraphic" in2="effect1_dropShadow" result="shape"/></filter></defs><g filter="url(#master_svg0_0_12747)"><rect x="45" y="27" width="315" height="60.99998474121094" rx="30.49999237060547" fill="#000000" fill-opacity="1"/><rect x="45.5" y="27.5" width="314" height="59.99998474121094" rx="29.99999237060547" fill-opacity="0" stroke-opacity="1" stroke="#E0E0E9" fill="none" stroke-width="1"/><g><g><path d="M127.9673,63.924C127.6195,64.72749999999999,127.20779999999999,65.46719999999999,126.7308,66.1472C126.0805,67.0743,125.5481,67.71600000000001,125.1378,68.0724C124.5018,68.65729999999999,123.8204,68.9568,123.0906,68.9739C122.5667,68.9739,121.935,68.8248,121.1996,68.5224C120.46170000000001,68.2214,119.7837,68.0724,119.1637,68.0724C118.51348,68.0724,117.81611,68.2214,117.0702,68.5224C116.32315,68.8248,115.72133,68.9824,115.2612,68.998C114.56143,69.0278,113.86393,68.7197,113.1677,68.0724C112.72333,67.6848,112.16752,67.0204,111.50167,66.0791C110.78727,65.0739,110.19994,63.9084,109.739811,62.579499999999996C109.24703,61.1442,109,59.7543,109,58.408699999999996C109,56.8673,109.333064,55.537890000000004,110.00019,54.42385C110.52448,53.528999999999996,111.22199,52.82312,112.09497,52.30493C112.96795,51.78674,113.9112,51.52267,114.92701,51.50578C115.48282,51.50578,116.21170000000001,51.6777,117.11748,52.01559C118.02069,52.35462,118.60065,52.52655,118.85491999999999,52.52655C119.045,52.52655,119.6893,52.32552,120.7815,51.92473C121.8143,51.55305,122.686,51.39916,123.4001,51.45978C125.3352,51.61595,126.789,52.37876,127.7558,53.75303C126.0252,54.80163,125.1691,56.2703,125.1861,58.1544C125.2017,59.622,125.7341,60.843199999999996,126.7804,61.8129C127.2546,62.2629,127.7842,62.6107,128.3734,62.8578C128.2456,63.228300000000004,128.1107,63.583200000000005,127.9673,63.924C127.9673,63.924,127.9673,63.924,127.9673,63.924ZM123.5293,46.460131C123.5293,47.61039,123.1091,48.68439,122.2714,49.67847C121.2606,50.86023,120.038,51.54311,118.71209,51.43536C118.6952,51.29736,118.6854,51.15213,118.6854,50.99951C118.6854,49.89526,119.1661,48.71349,120.0198,47.74724C120.446,47.25801,120.988,46.851218,121.6454,46.526714C122.3013,46.207053,122.9217,46.0302728,123.5052,46C123.5222,46.153772,123.5293,46.307554,123.5293,46.460116C123.5293,46.460116,123.5293,46.460131,123.5293,46.460131Z" fill="#FFFFFF" fill-opacity="1"/></g><g><path d="M154.186484375,62.68Q154.186484375,63.96,153.566484375,64.85Q152.946484375,65.74,151.796484375,66.22Q150.646484375,66.7,149.086484375,66.7Q148.286484375,66.7,147.556484375,66.62Q146.826484375,66.53999999999999,146.226484375,66.39Q145.626484375,66.24,145.166484375,66.02L145.166484375,64.3Q145.886484375,64.62,146.956484375,64.88Q148.026484375,65.14,149.166484375,65.14Q150.226484375,65.14,150.946484375,64.86Q151.666484375,64.58,152.026484375,64.06Q152.386484375,63.54,152.386484375,62.84Q152.386484375,62.14,152.086484375,61.66Q151.786484375,61.18,151.056484375,60.769999999999996Q150.326484375,60.36,149.026484375,59.9Q148.106484375,59.56,147.416484375,59.17Q146.726484375,58.78,146.266484375,58.28Q145.806484375,57.78,145.576484375,57.14Q145.346484375,56.5,145.346484375,55.66Q145.346484375,54.519999999999996,145.926484375,53.71Q146.506484375,52.9,147.536484375,52.46Q148.566484375,52.019999999999996,149.906484375,52.019999999999996Q151.086484375,52.019999999999996,152.066484375,52.24Q153.046484375,52.46,153.846484375,52.82L153.286484375,54.36Q152.546484375,54.04,151.676484375,53.82Q150.806484375,53.6,149.866484375,53.6Q148.966484375,53.6,148.366484375,53.86Q147.766484375,54.12,147.466484375,54.59Q147.166484375,55.06,147.166484375,55.68Q147.166484375,56.4,147.466484375,56.88Q147.766484375,57.36,148.446484375,57.74Q149.126484375,58.12,150.286484375,58.56Q151.546484375,59.019999999999996,152.416484375,59.55Q153.286484375,60.08,153.736484375,60.82Q154.186484375,61.56,154.186484375,62.68ZM158.586484375,55.78L158.586484375,66.5L156.826484375,66.5L156.826484375,55.78L158.586484375,55.78ZM157.726484375,51.76Q158.126484375,51.76,158.436484375,52.03Q158.746484375,52.3,158.746484375,52.88Q158.746484375,53.44,158.436484375,53.72Q158.126484375,54,157.726484375,54Q157.286484375,54,156.986484375,53.72Q156.686484375,53.44,156.686484375,52.88Q156.686484375,52.3,156.986484375,52.03Q157.286484375,51.76,157.726484375,51.76ZM165.786484375,55.58Q166.846484375,55.58,167.696484375,55.980000000000004Q168.546484375,56.38,169.146484375,57.2L169.246484375,57.2L169.486484375,55.78L170.886484375,55.78L170.886484375,66.68Q170.886484375,68.2,170.366484375,69.23Q169.846484375,70.26,168.786484375,70.78Q167.72648437499998,71.3,166.086484375,71.3Q164.926484375,71.3,163.956484375,71.13Q162.986484375,70.96000000000001,162.22648437499998,70.62L162.22648437499998,69Q162.986484375,69.4,164.006484375,69.62Q165.026484375,69.84,166.186484375,69.84Q167.56648437500002,69.84,168.356484375,69.03Q169.146484375,68.22,169.146484375,66.82L169.146484375,66.4Q169.146484375,66.16,169.166484375,65.71000000000001Q169.186484375,65.26,169.206484375,65.08L169.126484375,65.08Q168.56648437500002,65.9,167.736484375,66.3Q166.906484375,66.7,165.806484375,66.7Q163.72648437499998,66.7,162.556484375,65.24Q161.386484375,63.78,161.386484375,61.16Q161.386484375,58.6,162.556484375,57.09Q163.72648437499998,55.58,165.786484375,55.58ZM166.026484375,57.06Q165.126484375,57.06,164.496484375,57.54Q163.866484375,58.019999999999996,163.536484375,58.94Q163.206484375,59.86,163.206484375,61.18Q163.206484375,63.16,163.936484375,64.21000000000001Q164.666484375,65.26,166.06648437500002,65.26Q166.886484375,65.26,167.466484375,65.05Q168.046484375,64.84,168.426484375,64.39Q168.806484375,63.94,168.986484375,63.24Q169.166484375,62.54,169.166484375,61.58L169.166484375,61.16Q169.166484375,59.7,168.836484375,58.8Q168.506484375,57.9,167.806484375,57.480000000000004Q167.106484375,57.06,166.026484375,57.06ZM179.446484375,55.58Q181.366484375,55.58,182.346484375,56.51Q183.326484375,57.44,183.326484375,59.519999999999996L183.326484375,66.5L181.586484375,66.5L181.586484375,59.64Q181.586484375,58.34,181.006484375,57.7Q180.426484375,57.06,179.186484375,57.06Q177.406484375,57.06,176.72648437499998,58.06Q176.046484375,59.06,176.046484375,60.94L176.046484375,66.5L174.286484375,66.5L174.286484375,55.78L175.706484375,55.78L175.966484375,57.24L176.06648437500002,57.24Q176.426484375,56.68,176.956484375,56.31Q177.486484375,55.94,178.126484375,55.76Q178.766484375,55.58,179.446484375,55.58ZM200.086484375,55.78L200.086484375,66.5L198.646484375,66.5L198.386484375,65.08L198.306484375,65.08Q197.966484375,65.64,197.426484375,66Q196.886484375,66.36,196.246484375,66.53Q195.606484375,66.7,194.906484375,66.7Q193.626484375,66.7,192.756484375,66.28999999999999Q191.886484375,65.88,191.446484375,65.02Q191.006484375,64.16,191.006484375,62.8L191.006484375,55.78L192.786484375,55.78L192.786484375,62.68Q192.786484375,63.96,193.366484375,64.6Q193.946484375,65.24,195.166484375,65.24Q196.366484375,65.24,197.056484375,64.78999999999999Q197.746484375,64.34,198.036484375,63.47Q198.326484375,62.6,198.326484375,61.36L198.326484375,55.78L200.086484375,55.78ZM208.586484375,55.58Q210.56648437500002,55.58,211.776484375,56.96Q212.986484375,58.34,212.986484375,61.12Q212.986484375,62.94,212.43648437500002,64.19Q211.886484375,65.44,210.896484375,66.07Q209.906484375,66.7,208.56648437500002,66.7Q207.746484375,66.7,207.106484375,66.48Q206.466484375,66.26,206.016484375,65.91Q205.56648437500002,65.56,205.246484375,65.14L205.126484375,65.14Q205.166484375,65.48,205.206484375,66Q205.246484375,66.52,205.246484375,66.9L205.246484375,71.3L203.486484375,71.3L203.486484375,55.78L204.926484375,55.78L205.166484375,57.24L205.246484375,57.24Q205.56648437500002,56.78,206.016484375,56.4Q206.466484375,56.019999999999996,207.096484375,55.8Q207.72648437499998,55.58,208.586484375,55.58ZM208.266484375,57.06Q207.186484375,57.06,206.526484375,57.47Q205.866484375,57.88,205.56648437500002,58.7Q205.266484375,59.519999999999996,205.246484375,60.78L205.246484375,61.12Q205.246484375,62.44,205.526484375,63.36Q205.806484375,64.28,206.47648437499998,64.76Q207.146484375,65.24,208.306484375,65.24Q209.286484375,65.24,209.91648437499998,64.7Q210.546484375,64.16,210.85648437499998,63.230000000000004Q211.16648437499998,62.3,211.16648437499998,61.1Q211.16648437499998,59.26,210.456484375,58.16Q209.746484375,57.06,208.266484375,57.06ZM227.18648437500002,60.44Q227.06648437500002,60.019999999999996,226.946484375,59.61Q226.826484375,59.2,226.736484375,58.83Q226.646484375,58.46,226.56648437500002,58.14Q226.486484375,57.82,226.446484375,57.6L226.366484375,57.6Q226.326484375,57.82,226.256484375,58.14Q226.18648437500002,58.46,226.096484375,58.84Q226.006484375,59.22,225.896484375,59.63Q225.786484375,60.04,225.646484375,60.46L223.72648437499998,66.48L221.72648437499998,66.48L218.786484375,55.76L220.60648437499998,55.76L222.086484375,61.480000000000004Q222.246484375,62.06,222.386484375,62.65Q222.526484375,63.24,222.636484375,63.769999999999996Q222.746484375,64.3,222.786484375,64.68L222.866484375,64.68Q222.926484375,64.44,223.006484375,64.08Q223.086484375,63.72,223.176484375,63.32Q223.266484375,62.92,223.37648437500002,62.519999999999996Q223.486484375,62.12,223.586484375,61.8L225.486484375,55.76L227.406484375,55.76L229.246484375,61.8Q229.386484375,62.26,229.536484375,62.78Q229.68648437500002,63.3,229.806484375,63.79Q229.926484375,64.28,229.966484375,64.66L230.046484375,64.66Q230.086484375,64.32,230.196484375,63.81Q230.306484375,63.3,230.456484375,62.69Q230.60648437499998,62.08,230.766484375,61.480000000000004L232.266484375,55.76L234.06648437500002,55.76L231.086484375,66.48L229.026484375,66.48L227.18648437500002,60.44ZM237.746484375,55.78L237.746484375,66.5L235.986484375,66.5L235.986484375,55.78L237.746484375,55.78ZM236.886484375,51.76Q237.286484375,51.76,237.596484375,52.03Q237.906484375,52.3,237.906484375,52.88Q237.906484375,53.44,237.596484375,53.72Q237.286484375,54,236.886484375,54Q236.446484375,54,236.146484375,53.72Q235.846484375,53.44,235.846484375,52.88Q235.846484375,52.3,236.146484375,52.03Q236.446484375,51.76,236.886484375,51.76ZM244.72648437499998,65.26Q245.12648437500002,65.26,245.546484375,65.19Q245.966484375,65.12,246.22648437499998,65.03999999999999L246.22648437499998,66.38Q245.946484375,66.52,245.426484375,66.61Q244.906484375,66.7,244.426484375,66.7Q243.586484375,66.7,242.87648437500002,66.41Q242.16648437499998,66.12,241.72648437499998,65.4Q241.286484375,64.68,241.286484375,63.38L241.286484375,57.14L239.766484375,57.14L239.766484375,56.3L241.306484375,55.6L242.006484375,53.32L243.046484375,53.32L243.046484375,55.78L246.146484375,55.78L246.146484375,57.14L243.046484375,57.14L243.046484375,63.34Q243.046484375,64.32,243.516484375,64.78999999999999Q243.986484375,65.26,244.72648437499998,65.26ZM250.12648437500002,55.76Q250.12648437500002,56.14,250.096484375,56.54Q250.06648437500002,56.94,250.026484375,57.26L250.146484375,57.26Q250.486484375,56.7,251.006484375,56.34Q251.526484375,55.980000000000004,252.16648437499998,55.79Q252.806484375,55.6,253.486484375,55.6Q254.786484375,55.6,255.656484375,56.01Q256.526484375,56.42,256.966484375,57.28Q257.406484375,58.14,257.406484375,59.519999999999996L257.406484375,66.5L255.66648437499998,66.5L255.66648437499998,59.64Q255.66648437499998,58.34,255.086484375,57.7Q254.506484375,57.06,253.266484375,57.06Q252.06648437500002,57.06,251.386484375,57.51Q250.706484375,57.96,250.41648437499998,58.83Q250.12648437500002,59.7,250.12648437500002,60.96L250.12648437500002,66.5L248.366484375,66.5L248.366484375,51.3L250.12648437500002,51.3L250.12648437500002,55.76ZM274.406484375,66.5L272.68648437499996,62.08L267.026484375,62.08L265.326484375,66.5L263.506484375,66.5L269.086484375,52.16L270.706484375,52.16L276.266484375,66.5L274.406484375,66.5ZM270.546484375,56.16Q270.48648437500003,56,270.346484375,55.58Q270.206484375,55.16,270.076484375,54.71Q269.946484375,54.26,269.866484375,54.019999999999996Q269.766484375,54.42,269.656484375,54.83Q269.546484375,55.24,269.436484375,55.58Q269.326484375,55.92,269.246484375,56.16L267.626484375,60.480000000000004L272.146484375,60.480000000000004L270.546484375,56.16ZM283.086484375,55.58Q285.06648437499996,55.58,286.276484375,56.96Q287.48648437500003,58.34,287.48648437500003,61.12Q287.48648437500003,62.94,286.93648437499996,64.19Q286.386484375,65.44,285.396484375,66.07Q284.406484375,66.7,283.06648437499996,66.7Q282.246484375,66.7,281.60648437500004,66.48Q280.966484375,66.26,280.516484375,65.91Q280.06648437499996,65.56,279.746484375,65.14L279.626484375,65.14Q279.666484375,65.48,279.706484375,66Q279.746484375,66.52,279.746484375,66.9L279.746484375,71.3L277.98648437500003,71.3L277.98648437500003,55.78L279.426484375,55.78L279.666484375,57.24L279.746484375,57.24Q280.06648437499996,56.78,280.516484375,56.4Q280.966484375,56.019999999999996,281.596484375,55.8Q282.22648437500004,55.58,283.086484375,55.58ZM282.766484375,57.06Q281.68648437499996,57.06,281.026484375,57.47Q280.366484375,57.88,280.06648437499996,58.7Q279.766484375,59.519999999999996,279.746484375,60.78L279.746484375,61.12Q279.746484375,62.44,280.026484375,63.36Q280.30648437499997,64.28,280.97648437500004,64.76Q281.646484375,65.24,282.80648437499997,65.24Q283.786484375,65.24,284.416484375,64.7Q285.046484375,64.16,285.35648437500004,63.230000000000004Q285.666484375,62.3,285.666484375,61.1Q285.666484375,59.26,284.956484375,58.16Q284.246484375,57.06,282.766484375,57.06ZM295.386484375,55.58Q297.366484375,55.58,298.576484375,56.96Q299.786484375,58.34,299.786484375,61.12Q299.786484375,62.94,299.23648437500003,64.19Q298.68648437499996,65.44,297.696484375,66.07Q296.706484375,66.7,295.366484375,66.7Q294.546484375,66.7,293.906484375,66.48Q293.266484375,66.26,292.81648437499996,65.91Q292.366484375,65.56,292.046484375,65.14L291.926484375,65.14Q291.966484375,65.48,292.006484375,66Q292.046484375,66.52,292.046484375,66.9L292.046484375,71.3L290.286484375,71.3L290.286484375,55.78L291.72648437500004,55.78L291.966484375,57.24L292.046484375,57.24Q292.366484375,56.78,292.81648437499996,56.4Q293.266484375,56.019999999999996,293.896484375,55.8Q294.526484375,55.58,295.386484375,55.58ZM295.06648437499996,57.06Q293.98648437500003,57.06,293.326484375,57.47Q292.666484375,57.88,292.366484375,58.7Q292.06648437499996,59.519999999999996,292.046484375,60.78L292.046484375,61.12Q292.046484375,62.44,292.326484375,63.36Q292.60648437500004,64.28,293.276484375,64.76Q293.946484375,65.24,295.10648437500004,65.24Q296.086484375,65.24,296.716484375,64.7Q297.346484375,64.16,297.656484375,63.230000000000004Q297.966484375,62.3,297.966484375,61.1Q297.966484375,59.26,297.256484375,58.16Q296.546484375,57.06,295.06648437499996,57.06ZM304.346484375,66.5L302.586484375,66.5L302.586484375,51.3L304.346484375,51.3L304.346484375,66.5ZM311.886484375,55.58Q313.266484375,55.58,314.256484375,56.18Q315.246484375,56.78,315.776484375,57.87Q316.30648437499997,58.96,316.30648437499997,60.42L316.30648437499997,61.480000000000004L308.966484375,61.480000000000004Q309.006484375,63.3,309.896484375,64.25Q310.786484375,65.2,312.386484375,65.2Q313.406484375,65.2,314.196484375,65.01Q314.98648437500003,64.82,315.826484375,64.46000000000001L315.826484375,66Q315.006484375,66.36,314.206484375,66.53Q313.406484375,66.7,312.30648437499997,66.7Q310.786484375,66.7,309.616484375,66.08Q308.446484375,65.46000000000001,307.796484375,64.23Q307.146484375,63,307.146484375,61.22Q307.146484375,59.46,307.73648437500003,58.2Q308.326484375,56.94,309.396484375,56.26Q310.466484375,55.58,311.886484375,55.58ZM311.866484375,57.019999999999996Q310.60648437500004,57.019999999999996,309.876484375,57.83Q309.146484375,58.64,309.006484375,60.08L314.466484375,60.08Q314.466484375,59.16,314.18648437499996,58.480000000000004Q313.906484375,57.8,313.336484375,57.41Q312.766484375,57.019999999999996,311.866484375,57.019999999999996Z" fill="#FFFFFF" fill-opacity="1"/></g></g></g></svg>