<svg xmlns="http://www.w3.org/2000/svg" xmlns:xlink="http://www.w3.org/1999/xlink" fill="none" version="1.1" width="315" height="54" viewBox="0 0 315 54"><g><rect x="0" y="0" width="315" height="54" rx="27" fill="#FFFFFF" fill-opacity="1"/><rect x="0.5" y="0.5" width="314" height="53" rx="26.5" fill-opacity="0" stroke-opacity="1" stroke="#E0E0E9" fill="none" stroke-width="1" stroke-linecap="ROUND"/><g><g><g><path d="M74.53999999999999,30.761360995788575C74.53999999999999,29.945910995788573,74.4668,29.161817995788574,74.3309,28.409090995788574C74.3309,28.409090995788574,63.5,28.409090995788574,63.5,28.409090995788574C63.5,28.409090995788574,63.5,32.85750099578858,63.5,32.85750099578858C63.5,32.85750099578858,69.68909,32.85750099578858,69.68909,32.85750099578858C69.4225,34.29500099578858,68.61227,35.51295099578857,67.39432,36.32841099578857C67.39432,36.32841099578857,67.39432,39.213890995788574,67.39432,39.213890995788574C67.39432,39.213890995788574,71.11091,39.213890995788574,71.11091,39.213890995788574C73.28545,37.21182099578857,74.53999999999999,34.263630995788574,74.53999999999999,30.761360995788575Z" fill-rule="evenodd" fill="#4285F4" fill-opacity="1"/></g><g><path d="M63.49945625,41.999836387634275C66.60445625,41.999836387634275,69.20765625,40.970066387634276,71.11035625,39.21369638763428C71.11035625,39.21369638763428,67.39375625,36.32824638763428,67.39375625,36.32824638763428C66.36405625,37.01824638763428,65.04675625,37.42597638763428,63.49945625,37.42597638763428C60.50424625,37.42597638763428,57.96901625,35.403016387634274,57.06470625,32.68483638763428C57.06470625,32.68483638763428,53.22265625,32.68483638763428,53.22265625,32.68483638763428C53.22265625,32.68483638763428,53.22265625,35.66438638763428,53.22265625,35.66438638763428C55.114926249999996,39.422786387634275,59.00401625,41.999836387634275,63.49945625,41.999836387634275Z" fill-rule="evenodd" fill="#34A853" fill-opacity="1"/></g><g><path d="M57.06523000000091,32.68506597595215C56.83523000000091,31.995065975952148,56.70455000000091,31.258015975952148,56.70455000000091,30.500065975952147C56.70455000000091,29.74210597595215,56.83523000000091,29.00506597595215,57.06523000000091,28.315065975952148C57.06523000000091,28.315065975952148,57.06523000000091,25.33551597595215,57.06523000000091,25.33551597595215C57.06523000000091,25.33551597595215,53.22318000000091,25.33551597595215,53.22318000000091,25.33551597595215C52.44431800000091,26.888015975952147,52.00000000000091,28.644375975952148,52.00000000000091,30.500065975952147C52.00000000000091,32.355745975952146,52.44431800000091,34.11210597595215,53.22318000000091,35.664615975952145C53.22318000000091,35.664615975952145,57.06523000000091,32.68506597595215,57.06523000000091,32.68506597595215Z" fill-rule="evenodd" fill="#FBBC05" fill-opacity="1"/></g><g><path d="M63.49945625,23.573859999999772C65.18785625,23.573859999999772,66.70375625,24.154089999999773,67.89565625,25.293639999999773C67.89565625,25.293639999999773,71.19405625,21.995229999999772,71.19405625,21.995229999999772C69.20245625,20.139549999999772,66.59925625,18.999999999999773,63.49945625,18.999999999999773C59.00401625,18.999999999999773,55.114926249999996,21.577049999999772,53.22265625,25.335449999999774C53.22265625,25.335449999999774,57.06470625,28.31499999999977,57.06470625,28.31499999999977C57.96901625,25.596819999999774,60.50424625,23.573859999999772,63.49945625,23.573859999999772Z" fill-rule="evenodd" fill="#EA4335" fill-opacity="1"/></g><g></g></g><g><path d="M100.52837,26.77268Q100.41473,25.76705,99.59297,25.21029Q98.77133,24.65343,97.52277,24.65343Q96.62789,24.65343,95.9737,24.93253Q95.31962,25.21163,94.96163,25.698909999999998Q94.60374,26.18608,94.60229,26.80686Q94.59941,27.32533,94.84588,27.69964Q95.09235,28.07384,95.49285,28.325969999999998Q95.89347,28.5781,96.35511,28.74434Q96.81676,28.91047,97.24434,29.017L98.66479,29.386319999999998Q99.36082,29.55677,100.09235,29.85085Q100.82389,30.144930000000002,101.4474,30.6187Q102.071,31.0923,102.4581,31.7954Q102.8451,32.498599999999996,102.8466,33.483000000000004Q102.8451,34.713,102.2116,35.6733Q101.5782,36.6335,100.37433,37.186099999999996Q99.1705,37.738600000000005,97.46018,37.738600000000005Q95.83099,37.738600000000005,94.63703,37.223Q93.44318,36.7074,92.76769,35.7522Q92.09231,34.7969,92.02273,33.477199999999996L94.22732,33.477199999999996Q94.29124,34.2699,94.74001,34.7898Q95.1889,35.3096,95.89702,35.564Q96.60514,35.8182,97.44886,35.8182Q98.38215,35.8182,99.10935,35.522800000000004Q99.83667,35.2273,100.2557,34.6975Q100.67474,34.1676,100.67618,33.4602Q100.67474,32.813900000000004,100.30897,32.3999Q99.9432,31.985799999999998,99.31954,31.7181Q98.69598,31.4503,97.9205,31.244300000000003L96.19886,30.7727Q94.44882,30.29685,93.43109,29.372889999999998Q92.41335,28.44882,92.41479,26.931820000000002Q92.41335,25.677599999999998,93.09439,24.739440000000002Q93.77555,23.80116,94.94243,23.27847Q96.10942,22.755679999999998,97.56816,22.755679999999998Q99.04543,22.755679999999998,100.17747,23.27415Q101.3096,23.79261,101.9637,24.6996Q102.6179,25.60658,102.6477,26.77268L100.52837,26.77268ZM105.2954,37.5L105.2954,26.59091L107.4205,26.59091L107.4205,37.5L105.2954,37.5ZM106.37,24.90911Q105.8182,24.90911,105.4233,24.53691Q105.0284,24.16471,105.0284,23.64202Q105.0284,23.11934,105.4235,22.74725Q105.8186,22.37504,106.3693,22.37504Q106.9219,22.37504,107.316,22.74725Q107.7102,23.11945,107.7102,23.64213Q107.7102,24.16482,107.316,24.53702Q106.9219,24.90911,106.37,24.90911ZM114.848,41.818200000000004Q113.5483,41.818200000000004,112.61580000000001,41.477900000000005Q111.6833,41.1378,111.0916,40.5745Q110.5,40.0113,110.2116,39.346599999999995L112.0355,38.596599999999995Q112.2287,38.9048,112.5525,39.257000000000005Q112.8764,39.6094,113.434,39.858599999999996Q113.9915,40.108000000000004,114.8707,40.108000000000004Q116.0796,40.108000000000004,116.8671,39.5227Q117.6548,38.9375,117.6548,37.653400000000005L117.6548,35.5114L117.5184,35.5114Q117.3281,35.8608,116.9701,36.2877Q116.6122,36.7145,115.9858,37.0249Q115.3594,37.3352,114.3594,37.3352Q113.06960000000001,37.3352,112.0363,36.7273Q111.0029,36.1193,110.3999,34.9304Q109.7968,33.7415,109.7968,32Q109.7968,30.264229999999998,110.3913,29.01989Q110.9858,27.77555,112.02199999999999,27.11226Q113.0582,26.44886,114.3765,26.44886Q115.3906,26.44886,116.0156,26.78622Q116.6406,27.12358,116.99289999999999,27.5718Q117.3452,28.01991,117.5355,28.35793L117.6889,28.35793L117.6889,26.59091L119.7684,26.59091L119.7684,37.7444Q119.7684,39.1463,119.1171,40.0475Q118.4659,40.9488,117.3522,41.3835Q116.2386,41.818200000000004,114.848,41.818200000000004ZM114.831,35.5738Q115.7458,35.5738,116.38,35.1442Q117.0142,34.7145,117.3459,33.9084Q117.6776,33.1023,117.6776,31.9773Q117.6776,30.8721,117.3515,30.03485Q117.0256,29.19744,116.3913,28.72658Q115.75710000000001,28.25573,114.831,28.25573Q113.8708,28.25573,113.2293,28.74933Q112.588,29.24294,112.2663,30.086Q111.94460000000001,30.929000000000002,111.94460000000001,31.9773Q111.94460000000001,33.0483,112.27199999999999,33.8573Q112.5995,34.6662,113.24080000000001,35.1201Q113.88210000000001,35.5738,114.831,35.5738ZM124.74289999999999,31.0227L124.74289999999999,37.5L122.61789999999999,37.5L122.61789999999999,26.59091L124.6577,26.59091L124.6577,28.36936L124.7941,28.36936Q125.1719,27.49711,125.97659999999999,26.97299Q126.7812,26.44886,128.00990000000002,26.44886Q129.1279,26.44886,129.96370000000002,26.9155Q130.7997,27.38215,131.2635,28.2969Q131.7273,29.21165,131.7259,30.5625L131.7259,37.5L129.6009,37.5L129.6009,30.818199999999997Q129.6023,29.6278,128.9851,28.958849999999998Q128.3679,28.28979,127.2884,28.28979Q126.5498,28.28979,125.9751,28.61017Q125.4005,28.93044,125.0724,29.5419Q124.74430000000001,30.15336,124.74289999999999,31.0227ZM146.777,32.9773L146.777,26.59091L148.9019,26.59091L148.9019,37.5L146.8168,37.5L146.8168,35.6079L146.7031,35.6079Q146.3253,36.4815,145.5,37.061800000000005Q144.6748,37.641999999999996,143.4417,37.641999999999996Q142.3949,37.641999999999996,141.5874,37.1762Q140.7798,36.7102,140.3217,35.795500000000004Q139.8636,34.8807,139.8622,33.5284L139.8622,26.59091L141.9872,26.59091L141.9872,33.2727Q141.9887,34.3892,142.6072,35.0497Q143.2259,35.7102,144.2088,35.7102Q144.8068,35.7102,145.3984,35.4127Q145.99,35.1151,146.3842,34.509299999999996Q146.7784,33.9034,146.777,32.9773ZM151.7514,41.590900000000005L151.7514,26.59091L153.8253,26.59091L153.8253,28.35793L154.0014,28.35793Q154.1918,28.01991,154.5384,27.5718Q154.88490000000002,27.12358,155.5043,26.78622Q156.1236,26.44886,157.1378,26.44886Q158.45589999999999,26.44886,159.4921,27.11503Q160.5284,27.78121,161.12279999999998,29.039749999999998Q161.7173,30.298299999999998,161.7173,32.0682Q161.7173,33.832300000000004,161.1285,35.0952Q160.5398,36.358000000000004,159.50920000000002,37.034099999999995Q158.4787,37.7102,157.1548,37.7102Q156.1605,37.7102,155.53480000000002,37.3786Q154.9091,37.0469,154.55180000000001,36.5988Q154.1946,36.1506,154.0014,35.8011L153.8764,35.8011L153.8764,41.590900000000005L151.7514,41.590900000000005ZM153.8367,32.045500000000004Q153.8367,33.1931,154.1683,34.0618Q154.5,34.9304,155.13420000000002,35.4169Q155.76850000000002,35.9034,156.6833,35.9034Q157.63209999999998,35.9034,158.27339999999998,35.3956Q158.9148,34.8878,159.2422,34.0136Q159.56959999999998,33.1392,159.56959999999998,32.045500000000004Q159.56959999999998,30.963,159.24779999999998,30.10587Q158.92610000000002,29.2486,158.28480000000002,28.75222Q157.64350000000002,28.25573,156.6833,28.25573Q155.75709999999998,28.25573,155.12290000000002,28.72947Q154.4887,29.2031,154.1626,30.05471Q153.8367,30.9062,153.8367,32.045500000000004ZM171.75709999999998,37.5L168.55259999999998,26.59091L170.7458,26.59091L172.88209999999998,34.6023L172.99009999999998,34.6023L175.13209999999998,26.59091L177.3252,26.59091L179.45589999999999,34.5682L179.5639,34.5682L181.6889,26.59091L183.88209999999998,26.59091L180.6775,37.5L178.5128,37.5L176.2969,29.62502L176.1378,29.62502L173.9219,37.5L171.75709999999998,37.5ZM185.892,37.5L185.892,26.59091L188.0171,26.59091L188.0171,37.5L185.892,37.5ZM186.9666,24.90911Q186.4148,24.90911,186.0199,24.53691Q185.625,24.16471,185.625,23.64202Q185.625,23.11934,186.0201,22.74725Q186.4152,22.37504,186.9659,22.37504Q187.51839999999999,22.37504,187.9126,22.74725Q188.3068,23.11945,188.3068,23.64213Q188.3068,24.16482,187.9126,24.53702Q187.51839999999999,24.90911,186.9666,24.90911ZM195.96699999999998,26.59091L195.96699999999998,28.29545L190.00709999999998,28.29545L190.00709999999998,26.59091L195.96699999999998,26.59091ZM191.60399999999998,23.97727L193.72899999999998,23.97727L193.72899999999998,34.2983Q193.72899999999998,34.9119,193.912,35.2237Q194.095,35.5356,194.392,35.6442Q194.689,35.7528,195.036,35.7528Q195.293,35.7528,195.482,35.7188Q195.672,35.6847,195.78,35.662L196.166,37.417699999999996Q195.977,37.4844,195.636,37.561Q195.29399999999998,37.6378,194.786,37.6449Q193.947,37.659099999999995,193.22199999999998,37.3445Q192.49599999999998,37.0298,192.048,36.3778Q191.601,35.725899999999996,191.60399999999998,34.7358L191.60399999999998,23.97727ZM200.43200000000002,31.0227L200.43200000000002,37.5L198.30700000000002,37.5L198.30700000000002,22.95455L200.40300000000002,22.95455L200.40300000000002,28.36936L200.54000000000002,28.36936Q200.92000000000002,27.48435,201.709,26.96666Q202.497,26.44886,203.767,26.44886Q204.89100000000002,26.44886,205.732,26.90907Q206.574,27.36927,207.04000000000002,28.28413Q207.507,29.19889,207.506,30.5625L207.506,37.5L205.381,37.5L205.381,30.818199999999997Q205.382,29.61648,204.763,28.95319Q204.14499999999998,28.28979,203.04500000000002,28.28979Q202.291,28.28979,201.7,28.61017Q201.108,28.93044,200.77100000000002,29.5419Q200.433,30.15336,200.43200000000002,31.0227ZM225.658,27.55116Q225.452,26.90197,225.108,26.387050000000002Q224.764,25.87214,224.288,25.50781Q223.811,25.14349,223.205,24.9525Q222.599,24.761409999999998,221.876,24.761409999999998Q220.643,24.761409999999998,219.657,25.39062Q218.67000000000002,26.019840000000002,218.09699999999998,27.23866Q217.524,28.45736,217.524,30.22161Q217.524,31.988599999999998,218.099,33.2102Q218.675,34.4318,219.676,35.0625Q220.678,35.6931,221.962,35.6931Q223.142,35.6931,224.026,35.211600000000004Q224.91,34.7301,225.399,33.8467Q225.888,32.9631,225.888,31.764200000000002L226.456,31.869300000000003L222.291,31.869300000000003L222.291,30.056820000000002L228.013,30.056820000000002L228.013,31.7102Q228.013,33.545500000000004,227.234,34.8899Q226.455,36.2344,225.089,36.9667Q223.723,37.698899999999995,221.956,37.698899999999995Q219.986,37.698899999999995,218.497,36.7912Q217.00900000000001,35.8836,216.178,34.2089Q215.348,32.5341,215.348,30.23293Q215.348,28.49143,215.82999999999998,27.10793Q216.312,25.724429999999998,217.19,24.753529999999998Q218.06799999999998,23.78263,219.257,23.26915Q220.446,22.755679999999998,221.859,22.755679999999998Q223.038,22.755679999999998,224.059,23.10447Q225.08,23.45315,225.879,24.09024Q226.678,24.72723,227.203,25.60658Q227.729,26.48582,227.911,27.55116L225.658,27.55116ZM235.219,37.721599999999995Q233.682,37.721599999999995,232.54,37.0178Q231.398,36.313900000000004,230.766,35.049099999999996Q230.134,33.7841,230.134,32.0966Q230.134,30.39773,230.766,29.127200000000002Q231.398,27.85656,232.54,27.15277Q233.682,26.44886,235.219,26.44886Q236.756,26.44886,237.898,27.15277Q239.04,27.85656,239.672,29.127200000000002Q240.304,30.39773,240.304,32.0966Q240.304,33.7841,239.672,35.049099999999996Q239.04,36.313900000000004,237.898,37.0178Q236.756,37.721599999999995,235.219,37.721599999999995ZM235.224,35.9375Q236.222,35.9375,236.874,35.4105Q237.526,34.8835,237.844,34.0099Q238.162,33.1363,238.162,32.091Q238.162,31.044,237.844,30.16546Q237.526,29.28689,236.874,28.75422Q236.222,28.22155,235.224,28.22155Q234.222,28.22155,233.567,28.75422Q232.912,29.28689,232.594,30.16546Q232.276,31.044,232.276,32.091Q232.276,33.1363,232.594,34.0099Q232.912,34.8835,233.567,35.4105Q234.222,35.9375,235.224,35.9375ZM247.264,37.721599999999995Q245.727,37.721599999999995,244.585,37.0178Q243.443,36.313900000000004,242.811,35.049099999999996Q242.179,33.7841,242.179,32.0966Q242.179,30.39773,242.811,29.127200000000002Q243.443,27.85656,244.585,27.15277Q245.727,26.44886,247.264,26.44886Q248.801,26.44886,249.943,27.15277Q251.085,27.85656,251.717,29.127200000000002Q252.349,30.39773,252.349,32.0966Q252.349,33.7841,251.717,35.049099999999996Q251.085,36.313900000000004,249.943,37.0178Q248.801,37.721599999999995,247.264,37.721599999999995ZM247.27,35.9375Q248.267,35.9375,248.919,35.4105Q249.571,34.8835,249.889,34.0099Q250.207,33.1363,250.207,32.091Q250.207,31.044,249.889,30.16546Q249.571,29.28689,248.919,28.75422Q248.267,28.22155,247.27,28.22155Q246.267,28.22155,245.612,28.75422Q244.957,29.28689,244.639,30.16546Q244.321,31.044,244.321,32.091Q244.321,33.1363,244.639,34.0099Q244.957,34.8835,245.612,35.4105Q246.267,35.9375,247.27,35.9375ZM259.28700000000003,41.818200000000004Q257.98699999999997,41.818200000000004,257.055,41.477900000000005Q256.122,41.1378,255.53,40.5745Q254.939,40.0113,254.651,39.346599999999995L256.474,38.596599999999995Q256.668,38.9048,256.991,39.257000000000005Q257.315,39.6094,257.873,39.858599999999996Q258.43,40.108000000000004,259.31,40.108000000000004Q260.51800000000003,40.108000000000004,261.30600000000004,39.5227Q262.094,38.9375,262.094,37.653400000000005L262.094,35.5114L261.957,35.5114Q261.767,35.8608,261.409,36.2877Q261.051,36.7145,260.425,37.0249Q259.798,37.3352,258.798,37.3352Q257.509,37.3352,256.475,36.7273Q255.442,36.1193,254.839,34.9304Q254.236,33.7415,254.236,32Q254.236,30.264229999999998,254.83,29.01989Q255.425,27.77555,256.461,27.11226Q257.497,26.44886,258.815,26.44886Q259.83000000000004,26.44886,260.45500000000004,26.78622Q261.08000000000004,27.12358,261.432,27.5718Q261.784,28.01991,261.974,28.35793L262.128,28.35793L262.128,26.59091L264.207,26.59091L264.207,37.7444Q264.207,39.1463,263.55600000000004,40.0475Q262.905,40.9488,261.791,41.3835Q260.678,41.818200000000004,259.28700000000003,41.818200000000004ZM259.27,35.5738Q260.185,35.5738,260.81899999999996,35.1442Q261.453,34.7145,261.78499999999997,33.9084Q262.11699999999996,33.1023,262.11699999999996,31.9773Q262.11699999999996,30.8721,261.78999999999996,30.03485Q261.46500000000003,29.19744,260.83000000000004,28.72658Q260.196,28.25573,259.27,28.25573Q258.31,28.25573,257.668,28.74933Q257.027,29.24294,256.70500000000004,30.086Q256.384,30.929000000000002,256.384,31.9773Q256.384,33.0483,256.711,33.8573Q257.038,34.6662,257.68,35.1201Q258.321,35.5738,259.27,35.5738ZM269.182,22.95455L269.182,37.5L267.057,37.5L267.057,22.95455L269.182,22.95455ZM276.74,37.721599999999995Q275.129,37.721599999999995,273.96500000000003,37.027699999999996Q272.801,36.3338,272.174,35.0731Q271.547,33.8125,271.547,32.1194Q271.547,30.44034,272.175,29.161929999999998Q272.803,27.88352,273.935,27.16619Q275.067,26.44886,276.587,26.44886Q277.51599999999996,26.44886,278.381,26.75282Q279.246,27.05677,279.933,27.71096Q280.621,28.36503,281.02099999999996,29.40774Q281.422,30.45033,281.422,31.931800000000003L281.422,32.6818L272.746,32.6818L272.746,31.090899999999998L279.337,31.090899999999998Q279.33500000000004,30.25857,278.996,29.60727Q278.658,28.95597,278.043,28.58032Q277.429,28.20457,276.60400000000004,28.20457Q275.707,28.20457,275.04499999999996,28.63991Q274.384,29.07526,274.023,29.77705Q273.663,30.478740000000002,273.65999999999997,31.2955L273.65999999999997,32.5341Q273.65999999999997,33.6278,274.048,34.3949Q274.43600000000004,35.1619,275.132,35.564Q275.828,35.9659,276.757,35.9659Q277.36699999999996,35.9659,277.863,35.792699999999996Q278.35900000000004,35.6193,278.72,35.2721Q279.081,34.9248,279.274,34.4091L281.286,34.7727Q281.044,35.6591,280.423,36.3231Q279.803,36.9872,278.866,37.3544Q277.929,37.721599999999995,276.74,37.721599999999995Z" fill="#1D1C2B" fill-opacity="1"/></g></g></g></svg>